<?xml version="1.0" encoding="UTF-8"?><svg id="a" xmlns="http://www.w3.org/2000/svg" viewBox="0 0 449.52 592.14"><path d="M18.9,0c94.45,0,188.9,0,283.35,0,.83,.38,1.63,.9,2.51,1.11,14.1,3.44,26.52,9.65,37.11,19.94,28.89,28.06,58.19,55.72,87.23,83.63,13.42,12.9,20.4,28.77,20.4,47.43,.05,137.22,.03,274.45-.01,411.67,0,3.44-.13,7-1,10.29-3.11,11.73-12.7,18.05-26.91,18.05-131.25,0-262.5,0-393.75,0-1.73,0-3.48,.05-5.2-.14-9.58-1.09-16.87-5.84-20.44-14.78-1.72-4.31-2.1-9.38-2.1-14.11C-.02,385.02,0,206.93,0,28.85c0-2.12,.1-4.24,.22-6.35C.58,15.99,3.29,10.49,8.27,6.46,11.46,3.87,15.33,2.12,18.9,0ZM223.39,531.69c48.56,0,97.12,.04,145.68-.02,18.05-.02,28-9.96,28-27.85,.02-113.11,.02-226.23,0-339.34,0-17.58-9.93-27.55-27.58-27.68-12.91-.09-25.82,.02-38.73-.03-18.25-.06-27.83-9.52-27.99-27.69-.1-11.75,.51-23.54-.25-35.25-.38-5.88-2.04-12.27-5.06-17.26-5.03-8.32-13.89-10.13-23.23-10.12-64.94,.07-129.88,.03-194.82,.04-20.41,0-29.67,9.22-29.68,29.58-.01,51.45,0,102.9,0,154.35,0,90.57,.01,181.14-.02,271.71,0,6.63,.35,13.1,4.37,18.77,5.94,8.38,14.43,10.84,24.21,10.83,48.37-.07,96.73-.03,145.1-.03Z"/><path d="M82.25,148.16c-.09-45.25,36.52-82.11,81.71-82.27,45.42-.16,82.6,36.73,82.68,82.06,.08,45.06-36.8,82.1-81.89,82.26-45.57,.16-82.41-36.47-82.5-82.04Zm81.88-45.25c-24.85,.14-45.1,20.7-44.83,45.51,.27,24.75,20.36,44.72,45,44.75,24.71,.03,45.38-20.61,45.3-45.21-.08-24.68-20.79-45.19-45.47-45.05Z"/><path d="M220.22,265.89c44.14,0,88.27-.02,132.41,.02,10.24,0,17.35,5,19.73,13.59,2.64,9.52-2.83,19.6-12.43,22.3-3.09,.87-6.46,1.06-9.7,1.06-86.92,.05-173.85,.05-260.77,.02-2.49,0-5.04,0-7.48-.48-9.6-1.89-16.03-10.32-15.12-19.57,.95-9.67,8.22-16.68,18.07-16.85,13.1-.22,26.21-.08,39.32-.09,31.99,0,63.99,0,95.98,0Z"/><path d="M219.64,391.13c-44.14,0-88.27,.03-132.41-.02-11.14-.01-18.38-5.62-20.1-15.19-1.72-9.59,4.21-18.78,13.73-20.99,2.41-.56,4.96-.77,7.44-.77,87.69-.04,175.38-.04,263.08-.02,12.83,0,21.09,6.87,21.5,17.66,.4,10.4-6.92,18.79-17.37,19.16-10.39,.37-20.81,.16-31.22,.17-34.88,.01-69.77,0-104.65,0Z"/><path d="M219.78,442.72c32.18,0,64.35-.05,96.53,.03,11.55,.03,19.33,7.05,19.78,17.42,.41,9.53-5.61,17.22-15.02,19.01-2.06,.39-4.21,.52-6.32,.52-63.2,.03-126.39,.05-189.59-.04-3.4,0-7-.44-10.17-1.6-7.85-2.89-12.59-11.44-11.34-19.43,1.38-8.86,8.34-15.25,17.29-15.8,2.11-.13,4.24-.11,6.36-.11,30.83,0,61.66,0,92.48,0Z"/></svg>